<?xml version="1.0" encoding="UTF-8" standalone="no"?>
<svg
   xmlns:dc="http://purl.org/dc/elements/1.1/"
   xmlns:cc="http://creativecommons.org/ns#"
   xmlns:rdf="http://www.w3.org/1999/02/22-rdf-syntax-ns#"
   xmlns:svg="http://www.w3.org/2000/svg"
   xmlns="http://www.w3.org/2000/svg"
   xmlns:sodipodi="http://sodipodi.sourceforge.net/DTD/sodipodi-0.dtd"
   xmlns:inkscape="http://www.inkscape.org/namespaces/inkscape"
   width="1000"
   height="1000"
   version="1.1"
   id="svg3739"
   sodipodi:docname="goose.svg"
   inkscape:version="0.92.2 (5c3e80d, 2017-08-06)">
  <defs
     id="defs3743" />
  <sodipodi:namedview
     pagecolor="#ffffff"
     bordercolor="#666666"
     borderopacity="1"
     objecttolerance="10"
     gridtolerance="10"
     guidetolerance="10"
     inkscape:pageopacity="0"
     inkscape:pageshadow="2"
     inkscape:window-width="1920"
     inkscape:window-height="1017"
     id="namedview3741"
     showgrid="false"
     inkscape:zoom="0.424"
     inkscape:cx="812.52691"
     inkscape:cy="532.25013"
     inkscape:window-x="-8"
     inkscape:window-y="-8"
     inkscape:window-maximized="1"
     inkscape:current-layer="svg3739" />
  <metadata
     id="metadata3722">Svg Vector Icons : http://www.onlinewebfonts.com/icon<rdf:RDF>
  <cc:Work
     rdf:about="">
    <dc:format>image/svg+xml</dc:format>
    <dc:type
       rdf:resource="http://purl.org/dc/dcmitype/StillImage" />
    <dc:title></dc:title>
  </cc:Work>
</rdf:RDF>
</metadata>
  <rect
     style="fill:#3b3e47;fill-opacity:1"
     id="rect4595"
     width="1346.6981"
     height="1054.2452"
     x="-193.39622"
     y="-7.0754719" />
  <g
     id="g3727">
    <title
       id="title3724">background</title>
    <rect
       x="-1"
       y="-1"
       width="1002"
       height="1002"
       id="canvas_background"
       fill="#ffffd9"
       style="fill:#ffffd9;fill-opacity:0" />
  </g>
  <g
     id="g3737">
    <title
       id="title3729">Layer 1</title>
    <g
       id="svg_1">
      <g
         transform="matrix(0.10487681,0,0,-0.1,-27.331564,511)"
         id="svg_2">
        <path
           d="m 5308.3,4997.2 c -194.5,-29.4 -402.5,-133.4 -540.5,-273.6 -144.7,-147 -217.1,-284.9 -246.5,-488.5 -11.3,-83.7 -40.7,-187.7 -61.1,-230.7 -22.6,-43 -169.6,-189.9 -327.9,-327.9 -334.7,-291.7 -452.3,-436.4 -486.2,-603.8 -76.9,-355 221.6,-719.1 590.2,-719.1 178.6,0 642.2,185.4 940.7,377.7 205.8,131.2 239.7,318.9 81.4,456.8 -115.3,101.8 -201.3,95 -425.1,-36.2 -201.3,-119.9 -517.9,-255.5 -592.5,-255.5 -74.6,0 -85.9,65.6 -27.1,128.9 29.4,31.7 165.1,151.5 300.8,269.1 377.7,321.1 486.2,483.9 529.2,800.5 20.3,156 29.4,176.4 110.8,253.3 137.9,126.6 294,160.6 459.1,95 183.2,-74.6 296.3,-325.7 339.2,-753 31.7,-300.8 11.3,-441 -165.1,-1144.3 -74.6,-298.5 -140.2,-612.8 -147,-701 -29.4,-364.1 76.9,-986 228.4,-1352.3 140.2,-339.4 255.5,-511.3 725.9,-1078.9 545,-658.1 655.8,-877.4 651.3,-1289 -11.3,-757.6 -398,-1268.7 -1117.1,-1476.7 -296.3,-88.2 -585.7,-115.4 -1024.5,-99.5 -780.2,29.4 -1268.6,201.3 -1641.8,578.9 -400.3,409.3 -597,992.8 -678.4,2024 -29.4,377.7 -29.4,669.4 0,669.4 13.6,0 85.9,-24.9 162.8,-56.5 199,-81.4 296.2,-76.9 393.5,20.4 65.6,65.6 76.9,92.7 76.9,178.6 0,171.9 -54.3,214.8 -479.4,373.1 -203.5,74.6 -391.2,142.5 -418.4,151.5 -65.6,18.1 -192.2,-38.4 -251,-113.1 -47.5,-58.8 -49.8,-85.9 -49.8,-450 0,-979.2 124.4,-1809.1 350.5,-2358.7 264.6,-635.4 664.9,-1051.6 1259.6,-1304.8 784.7,-332.4 1974.2,-346 2722.7,-29.4 762.1,321.1 1187.2,954.3 1223.4,1825 11.3,262.3 6.8,330.2 -33.9,490.7 -76.9,305.3 -248.7,615.1 -540.5,970.2 -701,861.6 -762.1,949.8 -882,1298 -38.5,117.6 -90.5,332.4 -110.8,474.9 -56.5,389 -36.2,599.3 99.5,1130.7 176.4,676.2 192.2,791.5 178.7,1187.2 -13.6,373.1 -61.1,601.6 -171.9,836.7 -196.5,416.2 -567.4,619.7 -1006.1,551.9 z"
           id="svg_3"
           inkscape:connector-curvature="0"
           style="fill:#ff5b5b;fill-opacity:1" />
        <path
           d="M 4715.8,2265.4 C 4623.1,2208.9 4600.5,2136.5 4584.6,1856.1 4555.2,1299.7 4415,879.1 4116.5,454 4050.9,361.3 3802.2,85.4 3564.7,-156.6 c -239.7,-242 -445.5,-463.6 -461.3,-490.7 -95,-183.2 85.9,-418.4 291.7,-375.4 95,18.1 902.3,818.6 1112.6,1103.6 379.9,508.8 572.1,1060.6 619.6,1766.2 11.3,192.2 9,242 -24.9,312.1 -67.8,144.6 -244.2,192.1 -386.6,106.2 z"
           id="svg_4"
           inkscape:connector-curvature="0"
           style="fill:#ff5b5b;fill-opacity:1" />
        <path
           d="m 3872.3,-4172.9 c -147,-124.4 -135.7,-318.9 29.4,-454.6 135.7,-110.8 280.4,-147 624.2,-158.3 284.9,-9 312.1,-6.8 404.8,43 251,131.2 237.5,463.6 -22.6,540.5 -72.4,22.6 -97.2,20.4 -185.4,-22.6 -85.9,-40.7 -122.1,-45.2 -262.3,-33.9 -131.2,13.6 -178.6,27.1 -244.2,79.2 -108.7,88.1 -246.7,90.4 -343.9,6.7 z"
           id="svg_5"
           inkscape:connector-curvature="0"
           style="fill:#ff5b5b;fill-opacity:1" />
        <path
           d="m 6366.6,-4175.2 c -106.3,-72.4 -393.5,-113.1 -472.6,-65.6 -126.6,79.2 -275.9,52 -368.6,-65.6 -97.2,-122.1 -43,-330.2 106.3,-422.9 67.8,-42.9 122.1,-52 314.3,-58.8 375.4,-15.8 664.9,63.3 796,214.8 56.5,63.3 67.8,95 67.8,189.9 0,101.8 -9,124.4 -76.9,192.2 -101.7,102 -235.1,106.5 -366.3,16 z"
           id="svg_6"
           inkscape:connector-curvature="0"
           style="fill:#ff5b5b;fill-opacity:1" />
      </g>
    </g>
  </g>
</svg>
